<svg id="Design" xmlns="http://www.w3.org/2000/svg" width="148.83" height="40.44" viewBox="0 0 148.83 40.44"><defs><style>.cls-1{fill:#c3c4bb;fill-rule:evenodd;}</style></defs><title>foot-logo</title><path class="cls-1" d="M1426.89,4052.29a7.38,7.38,0,0,0,4.62,1.85c2.93,0,3.69-1.77,3.69-4.1v-20.4h3.17v16.62c0,1.45,0,3-.08,4.46-0.16,3.85-2.13,6.1-6.66,6.1a9,9,0,0,1-6.34-2.29Zm30.15-5.82c0-4.82-1.41-8.19-5.3-8.19s-5.54,3.21-5.54,7.55c0,4,.8,8.67,5.38,8.67C1455.4,4054.5,1457,4050.84,1457,4046.47Zm-5.06-10.64c2.77,0,8.23.88,8.23,10,0,7.83-3.89,11.12-8.91,11.12s-8.23-3.45-8.23-10.68C1443.07,4037.91,1448,4035.83,1452,4035.83Zm27.46,19.71v-19.15h-3.05v12c0,2.77-1.85,4.7-4.9,4.7-4.26,0-4.54-2.33-4.54-5.38v-11.28h-3.13v12.13c0,4.58,2.21,6.22,5.62,6.58-2,1.29-4.42,3.61-4.42,6.87,0,3.09,2,5.06,6.06,5.06,4.26,0,6.83-2,7.83-5.94A26.28,26.28,0,0,0,1479.45,4055.54Zm-8,9.07c3.65,0,4.94-3.17,4.94-7.55v-3.49c-4.82,2-8.31,4.18-8.31,8C1468,4063.53,1469.21,4064.61,1471.42,4064.61Zm21-28.79c-6.1,0-9.31,4.9-9.31,10.84s2.65,10.24,8.91,10.24a10.42,10.42,0,0,0,6.54-2.29l-1.2-2a8.25,8.25,0,0,1-5.14,1.85c-4.26,0-5.86-3.45-6-6.75,0.32,0,.64,0,1,0,3.89,0,11-1,11-6.91C1498.24,4037.83,1496.11,4035.83,1492.38,4035.83Zm-0.16,2.33c-4.3,0-5.94,4.05-6.06,7.23,0.24,0,.48,0,0.8,0,2.73,0,8.35-.64,8.35-4.26A2.87,2.87,0,0,0,1492.22,4038.16Zm13.29,18.19v-13.09a5.35,5.35,0,0,1,5.42-4.94c3.37,0,4,2.41,4,5.38v12.65h3.13v-13.61c0-4.58-2.25-6.91-6.38-6.91a7.64,7.64,0,0,0-6.46,3.45l-0.36-2.89h-2.69l0.2,3v16.94h3.13Zm17.19-27.91v22.44c0,2.93.16,6,5.5,6a8.49,8.49,0,0,0,4.54-1.33l-0.92-2.09a5.84,5.84,0,0,1-3.05,1c-1.89,0-2.93-.84-2.93-3.49v-11.88h5.7v-2.69h-5.7v-8h-3.13Zm-116.34,30a15.93,15.93,0,1,0-15.93-15.93A15.93,15.93,0,0,0,1406.35,4058.45Zm-2.84-24.46a0.6,0.6,0,0,1,.6-0.6h4.47a0.6,0.6,0,0,1,.6.6v5.69h5.69a0.6,0.6,0,0,1,.6.6v4.47a0.6,0.6,0,0,1-.6.6h-5.69v5.69a0.6,0.6,0,0,1-.6.6h-4.47a0.6,0.6,0,0,1-.6-0.6v-5.69h-5.69a0.6,0.6,0,0,1-.6-0.6v-4.47a0.6,0.6,0,0,1,.6-0.6h5.69V4034Zm131.66-3.72a2,2,0,1,0,2-2A2,2,0,0,0,1535.18,4030.27Zm0.37,0a1.67,1.67,0,1,1,1.67,1.74A1.67,1.67,0,0,1,1535.55,4030.27Zm0.88,1.19h0.37v-1h0.39l0.64,1h0.4l-0.68-1a0.61,0.61,0,0,0,.62-0.64,0.67,0.67,0,0,0-.83-0.68h-0.92v2.37Zm0.37-2.07h0.49c0.25,0,.52,0,0.52.36s-0.3.39-.62,0.39h-0.38v-0.75Z" transform="translate(-1390.42 -4026.59)"/></svg>