<svg id="Layer_1" data-name="Layer 1" xmlns="http://www.w3.org/2000/svg" width="258.44" height="71.27" viewBox="0 0 258.44 71.27"><defs><style>.cls-1{fill:none;stroke:#c3c4bb;stroke-miterlimit:10;stroke-width:2px;}.cls-1,.cls-2{opacity:0.5;}.cls-3{fill:#c3c4bb;}</style></defs><title>get-started-widget</title><polyline class="cls-1" points="150.72 49.51 130.37 69.85 110.03 49.51"/><g class="cls-2"><path class="cls-3" d="M0,0.14H2.45V14.78H7.3v2.45H0V0.14Z"/><path class="cls-3" d="M11.42,0.14h7.3v2.3H13.87v5h4.22v2.3H13.87v5h4.85v2.45h-7.3V0.14Z"/><path class="cls-3" d="M26.11,0.14h2L32,17.23H29.52L28.8,13.56H25.47l-0.72,3.67H22.3Zm1,4.92h0l-1.2,6.19h2.45Z"/><path class="cls-3" d="M35.91,0.14h3.94q4.32,0,4.32,5a6.35,6.35,0,0,1-.47,2.56A3.62,3.62,0,0,1,42,9.43l2.64,7.8H42.1l-2.28-7.3H38.35v7.3H35.91V0.14Zm2.45,7.63h1.39a2.47,2.47,0,0,0,1-.18,1.33,1.33,0,0,0,.59-0.52,2.19,2.19,0,0,0,.28-0.83,8,8,0,0,0,.07-1.14A8,8,0,0,0,41.64,4a2.05,2.05,0,0,0-.3-0.84,1.36,1.36,0,0,0-.64-0.52,2.89,2.89,0,0,0-1.08-.17H38.35V7.78Z"/><path class="cls-3" d="M48.7,0.14H51l3.7,10.3h0V0.14h2.45V17.23h-2.3L51.19,7h0V17.23H48.7V0.14Z"/><path class="cls-3" d="M68.71,0.14h2.35l3.14,9h0l3.12-9h2.38V17.23H77.3V6.84h0l-2.42,7.34H73.61l-2.4-7.34h0V17.23H68.71V0.14Z"/><path class="cls-3" d="M84.19,4.18a4.36,4.36,0,0,1,.36-1.82A3.8,3.8,0,0,1,85.5,1,4.08,4.08,0,0,1,86.82.26a4.26,4.26,0,0,1,3,0A4.09,4.09,0,0,1,91.09,1,3.81,3.81,0,0,1,92,2.35a4.38,4.38,0,0,1,.36,1.82v9A4.35,4.35,0,0,1,92,15a3.83,3.83,0,0,1-.95,1.3,4.07,4.07,0,0,1-1.32.78,4.26,4.26,0,0,1-3,0,4.06,4.06,0,0,1-1.32-.78,3.82,3.82,0,0,1-.95-1.3,4.34,4.34,0,0,1-.36-1.84v-9Zm2.45,9a1.63,1.63,0,0,0,.49,1.31,1.82,1.82,0,0,0,2.33,0A1.63,1.63,0,0,0,90,13.2v-9a1.63,1.63,0,0,0-.49-1.31,1.82,1.82,0,0,0-2.33,0,1.63,1.63,0,0,0-.49,1.31v9Z"/><path class="cls-3" d="M96.83,0.14h3.94q4.32,0,4.32,5a6.35,6.35,0,0,1-.47,2.56A3.62,3.62,0,0,1,103,9.43l2.64,7.8H103l-2.28-7.3H99.27v7.3H96.83V0.14Zm2.45,7.63h1.39a2.47,2.47,0,0,0,1-.18,1.33,1.33,0,0,0,.59-0.52,2.19,2.19,0,0,0,.28-0.83,8,8,0,0,0,.07-1.14A8,8,0,0,0,102.56,4a2.05,2.05,0,0,0-.3-0.84,1.36,1.36,0,0,0-.64-0.52,2.89,2.89,0,0,0-1.08-.17H99.27V7.78Z"/><path class="cls-3" d="M109.66,0.14H117v2.3h-4.85v5h4.22v2.3h-4.22v5H117v2.45h-7.3V0.14Z"/><path class="cls-3" d="M130.52,0.14h2l3.82,17.09h-2.45l-0.72-3.67h-3.34l-0.72,3.67H126.7Zm1,4.92h0l-1.2,6.19h2.45Z"/><path class="cls-3" d="M140.31,0.14h3.58a5,5,0,0,1,2,.36,3.77,3.77,0,0,1,1.36,1A3.6,3.6,0,0,1,148,2.84a5.73,5.73,0,0,1,.23,1.62V5.09a5.43,5.43,0,0,1-.11,1.18,2.82,2.82,0,0,1-.32.84,2.7,2.7,0,0,1-.53.64,4.57,4.57,0,0,1-.72.52,2.65,2.65,0,0,1,1.27,1.21,4.78,4.78,0,0,1,.41,2.15v1A5,5,0,0,1,147.14,16a4.51,4.51,0,0,1-3.49,1.2h-3.34V0.14Zm2.45,7h1.1a1.87,1.87,0,0,0,1.64-.61,3.15,3.15,0,0,0,.42-1.79A2.7,2.7,0,0,0,145.46,3a2.08,2.08,0,0,0-1.69-.58h-1v4.7Zm0,7.63h1.06a2.58,2.58,0,0,0,1.16-.22,1.49,1.49,0,0,0,.64-0.6,2.27,2.27,0,0,0,.26-0.91q0-.53,0-1.15a7.74,7.74,0,0,0-.07-1.13,1.86,1.86,0,0,0-.3-0.8,1.41,1.41,0,0,0-.64-0.49,2.89,2.89,0,0,0-1.08-.17h-1.08v5.47Z"/><path class="cls-3" d="M152.64,4.18A4.36,4.36,0,0,1,153,2.35,3.8,3.8,0,0,1,153.95,1a4.08,4.08,0,0,1,1.32-.78,4.26,4.26,0,0,1,3,0,4.09,4.09,0,0,1,1.32.78,3.81,3.81,0,0,1,.95,1.31,4.38,4.38,0,0,1,.36,1.82v9a4.35,4.35,0,0,1-.36,1.84,3.83,3.83,0,0,1-.95,1.3,4.07,4.07,0,0,1-1.32.78,4.26,4.26,0,0,1-3,0,4.06,4.06,0,0,1-1.32-.78A3.82,3.82,0,0,1,153,15a4.34,4.34,0,0,1-.36-1.84v-9Zm2.45,9a1.63,1.63,0,0,0,.49,1.31,1.82,1.82,0,0,0,2.33,0,1.63,1.63,0,0,0,.49-1.31v-9a1.63,1.63,0,0,0-.49-1.31,1.82,1.82,0,0,0-2.33,0,1.63,1.63,0,0,0-.49,1.31v9Z"/><path class="cls-3" d="M173.18,13.39a3.88,3.88,0,0,1-.31,1.56,4,4,0,0,1-2.11,2.11,3.94,3.94,0,0,1-3.07,0A4,4,0,0,1,165.57,15a3.88,3.88,0,0,1-.31-1.56V0.14h2.45v13a1.83,1.83,0,0,0,.43,1.34,1.57,1.57,0,0,0,2.16,0,1.83,1.83,0,0,0,.43-1.34v-13h2.45V13.39Z"/><path class="cls-3" d="M179.89,2.45h-2.83V0.14h8.11v2.3h-2.83V17.23h-2.45V2.45Z"/><path class="cls-3" d="M197.12,2.45h-2.83V0.14h8.11v2.3h-2.83V17.23h-2.45V2.45Z"/><path class="cls-3" d="M206.26,0.14h3.94q4.32,0,4.32,5a6.35,6.35,0,0,1-.47,2.56,3.62,3.62,0,0,1-1.64,1.72l2.64,7.8h-2.59l-2.28-7.3h-1.46v7.3h-2.45V0.14Zm2.45,7.63h1.39a2.47,2.47,0,0,0,1-.18,1.33,1.33,0,0,0,.59-0.52A2.19,2.19,0,0,0,212,6.25a8,8,0,0,0,.07-1.14A8,8,0,0,0,212,4a2.05,2.05,0,0,0-.3-0.84,1.36,1.36,0,0,0-.64-0.52A2.89,2.89,0,0,0,210,2.45h-1.27V7.78Z"/><path class="cls-3" d="M219.13,0.14h2.45V17.23h-2.45V0.14Z"/><path class="cls-3" d="M228.33,2.45h-2.83V0.14h8.11v2.3h-2.83V17.23h-2.45V2.45Z"/><path class="cls-3" d="M237.31,4.18a4.36,4.36,0,0,1,.36-1.82A3.8,3.8,0,0,1,238.62,1a4.08,4.08,0,0,1,1.32-.78,4.26,4.26,0,0,1,3,0,4.09,4.09,0,0,1,1.32.78,3.81,3.81,0,0,1,.95,1.31,4.38,4.38,0,0,1,.36,1.82v9a4.35,4.35,0,0,1-.36,1.84,3.83,3.83,0,0,1-.95,1.3,4.07,4.07,0,0,1-1.32.78,4.26,4.26,0,0,1-3,0,4.06,4.06,0,0,1-1.32-.78,3.82,3.82,0,0,1-.95-1.3,4.34,4.34,0,0,1-.36-1.84v-9Zm2.45,9a1.63,1.63,0,0,0,.49,1.31,1.82,1.82,0,0,0,2.33,0,1.63,1.63,0,0,0,.49-1.31v-9a1.63,1.63,0,0,0-.49-1.31,1.82,1.82,0,0,0-2.33,0,1.63,1.63,0,0,0-.49,1.31v9Z"/><path class="cls-3" d="M249.9,0.14h2.35l3.7,10.3h0V0.14h2.45V17.23h-2.3L252.4,7h0V17.23H249.9V0.14Z"/></g></svg>