<svg id="design" xmlns="http://www.w3.org/2000/svg" width="13.71" height="13.11" viewBox="0 0 13.71 13.11"><defs><style>.cls-1{fill:#fff;}</style></defs><title>linkedin</title><g id="Share"><path class="cls-1" d="M721.74,1361.09a1.42,1.42,0,0,1-.45,1.09,1.68,1.68,0,0,1-1.21.44h0a1.61,1.61,0,0,1-1.18-.44,1.47,1.47,0,0,1-.45-1.09,1.44,1.44,0,0,1,.46-1.09,1.68,1.68,0,0,1,1.2-.43,1.64,1.64,0,0,1,1.19.43A1.49,1.49,0,0,1,721.74,1361.09Zm-0.19,2.73v8.85h-2.95v-8.85h2.95Zm10.6,3.78v5.07h-2.94v-4.73a2.58,2.58,0,0,0-.36-1.47,1.27,1.27,0,0,0-1.13-.53,1.45,1.45,0,0,0-.94.31,1.9,1.9,0,0,0-.57.76,2.16,2.16,0,0,0-.1.72v4.94h-2.94q0-3.56,0-5.78t0-2.64v-0.43h2.94v1.29h0a4,4,0,0,1,.37-0.5,3.86,3.86,0,0,1,.5-0.46,2.33,2.33,0,0,1,.78-0.39,3.56,3.56,0,0,1,1-.14,3.17,3.17,0,0,1,2.46,1A4.25,4.25,0,0,1,732.15,1367.6Z" transform="translate(-718.44 -1359.56)"/></g></svg>