<svg id="design" xmlns="http://www.w3.org/2000/svg" width="16" height="12.57" viewBox="0 0 16 12.57"><defs><style>.cls-1{fill:#fff;}</style></defs><title>mail</title><g id="Share"><path class="cls-1" d="M762.1,1362a2.36,2.36,0,0,1-.44,1.35,4.25,4.25,0,0,1-1.09,1.1l-4.18,2.9-0.38.27-0.48.34-0.46.29a2.71,2.71,0,0,1-.51.24,1.42,1.42,0,0,1-.45.08h0a1.42,1.42,0,0,1-.45-0.08,2.69,2.69,0,0,1-.51-0.24l-0.46-.29-0.48-.34-0.38-.27-2.34-1.63-1.83-1.27a4.43,4.43,0,0,1-1-1,2.09,2.09,0,0,1-.49-1.22,1.8,1.8,0,0,1,.37-1.16,1.27,1.27,0,0,1,1.06-.46h13.14A1.44,1.44,0,0,1,762.1,1362Zm0,2.63v7.09a1.43,1.43,0,0,1-1.43,1.43H747.53a1.43,1.43,0,0,1-1.43-1.43v-7.09a4.68,4.68,0,0,0,.9.78q3.23,2.2,4.44,3.08l0.83,0.58a5.15,5.15,0,0,0,.84.43,2.56,2.56,0,0,0,1,.22h0a2.56,2.56,0,0,0,1-.22,5.07,5.07,0,0,0,.84-0.43l0.83-.58q1.52-1.1,4.45-3.08A4.89,4.89,0,0,0,762.1,1364.58Z" transform="translate(-746.1 -1360.52)"/></g></svg>