<svg id="Layer_1" data-name="Layer 1" xmlns="http://www.w3.org/2000/svg" width="45.26" height="49.25" viewBox="0 0 45.26 49.25"><defs><style>.cls-1{fill:#457595;}.cls-2{fill:none;stroke:#011b2a;stroke-miterlimit:10;stroke-width:1.12px;}</style></defs><title>manta</title><circle class="cls-1" cx="22.63" cy="22.63" r="22.63"/><path class="cls-2" d="M22.75,47.55a3,3,0,0,1-.28-1.45c-0.11-1.48-.24-3-0.38-4.43-0.17-1.8-.37-3.6-0.56-5.39l-0.63-6a6.68,6.68,0,0,1-.07-0.7,0.49,0.49,0,0,0-.3-0.45c-1-.64-2-1.33-3.05-2a24.24,24.24,0,0,0-4.17-2.05A30.46,30.46,0,0,0,9.75,24a10.35,10.35,0,0,0-5.22-.07,10.65,10.65,0,0,0-1.33.55c-0.18.08-.38,0.25-0.53,0.06a0.69,0.69,0,0,1,0-.54A8.27,8.27,0,0,1,4.24,21.3a14.8,14.8,0,0,1,4.48-3.68,39.25,39.25,0,0,1,4.77-2.11A8.53,8.53,0,0,0,17.12,13a4.42,4.42,0,0,0,1-2,2.09,2.09,0,0,1,.55-1.06,1.16,1.16,0,0,0,.25-0.53,7.53,7.53,0,0,1,.59-2.21,1.53,1.53,0,0,1,.25-0.27,1,1,0,0,1,.23.31c0.11,0.5.21,1,.28,1.5a2.45,2.45,0,0,0,.3,1.21,1.14,1.14,0,0,0,1.09.5,13.25,13.25,0,0,1,1.82,0A1.3,1.3,0,0,0,25,9.09c0-.5.09-1,0.16-1.49a2,2,0,0,1,.15-0.51,0.32,0.32,0,0,1,.19-0.19,0.36,0.36,0,0,1,.24.17,2.8,2.8,0,0,1,.29.67c0.12,0.53.19,1.06,0.31,1.59a2.34,2.34,0,0,0,.27.56,3.78,3.78,0,0,1,.5.91,5.6,5.6,0,0,0,1.84,3,10.23,10.23,0,0,0,3.33,1.91,29.65,29.65,0,0,1,5,2.35,14,14,0,0,1,5,5.22,4.4,4.4,0,0,1,.33.85,0.42,0.42,0,0,1-.07.37,0.48,0.48,0,0,1-.38,0,2.41,2.41,0,0,1-.42-0.21,8.32,8.32,0,0,0-4.84-.61A23.69,23.69,0,0,0,29,26.42a42.28,42.28,0,0,0-4.35,2.7,0.51,0.51,0,0,0-.18.34c-0.13,1.3-.25,2.6-0.38,3.9L23.5,39.79l-0.55,5.75Z"/></svg>