<svg id="Layer_1" data-name="Layer 1" xmlns="http://www.w3.org/2000/svg" width="190.76" height="41.57" viewBox="0 0 190.76 41.57"><defs><style>.cls-1{fill:#c3c4bb;}.cls-10,.cls-11,.cls-12,.cls-13,.cls-2,.cls-3,.cls-4,.cls-5,.cls-6,.cls-7,.cls-8,.cls-9{fill:none;stroke-linecap:round;stroke-linejoin:round;stroke-width:1.29px;}.cls-2{stroke:#b3b3b3;}.cls-3{stroke:#fff;}.cls-4{stroke:#599298;}.cls-5{stroke:#82d1e5;}.cls-6{stroke:#3b5967;}.cls-7{stroke:#5b87a8;}.cls-8{stroke:#b06828;}.cls-9{stroke:#f09922;}.cls-10{stroke:#b13f26;}.cls-11{stroke:#f06324;}.cls-12{stroke:#801518;}.cls-13{stroke:#c42c28;}</style></defs><title>stack-triton-logo</title><path class="cls-1" d="M71.92,17.36a6.06,6.06,0,0,1,4.66,1.77A6.75,6.75,0,0,1,78,23.89V34.63a6.75,6.75,0,0,1-1.43,4.76,6.06,6.06,0,0,1-4.66,1.77H67.16V17.36h4.76Zm3.54,17.07V24.09a4.61,4.61,0,0,0-1-3.26,3.46,3.46,0,0,0-2.72-1H69.71V38.68h2.07a3.46,3.46,0,0,0,2.72-1A4.61,4.61,0,0,0,75.46,34.43Z"/><path class="cls-1" d="M89.24,39.49h0a4.37,4.37,0,0,1-3.81,1.94c-2.69,0-3.47-2-3.47-4.72,0-3.57,1.16-5.58,4.93-5.58a22.55,22.55,0,0,1,2.38.14V28.78a2.27,2.27,0,0,0-2.38-2.28,2.22,2.22,0,0,0-2.31,2.07H82.1C82.1,25.72,84.27,24,87,24c3.91,0,4.76,2.89,4.76,5.07V41.16H89.24V39.49Zm0-6.36A14,14,0,0,0,87.5,33c-1.46,0-3,.78-3,3.26s0.71,3,2.18,3a3.2,3.2,0,0,0,2.58-3.16v-3Z"/><path class="cls-1" d="M99.29,19.16V24.3h2.38v2H99.29V36.57a2.42,2.42,0,0,0,.68,1.87,2.45,2.45,0,0,0,1.6.41h0.27v2.31h-0.75c-1,0-2.55,0-3.47-1.05a4.61,4.61,0,0,1-.88-3.23V26.34h-1.8v-2h1.8V19.16h2.55Z"/><path class="cls-1" d="M112.35,39.49h0a4.37,4.37,0,0,1-3.81,1.94c-2.69,0-3.47-2-3.47-4.72,0-3.57,1.16-5.58,4.93-5.58a22.55,22.55,0,0,1,2.38.14V28.78A2.27,2.27,0,0,0,110,26.51a2.22,2.22,0,0,0-2.31,2.07h-2.45c0-2.86,2.18-4.56,4.93-4.56,3.91,0,4.76,2.89,4.76,5.07V41.16h-2.55V39.49Zm0-6.36a14,14,0,0,0-1.73-.17c-1.46,0-3,.78-3,3.26s0.71,3,2.18,3a3.2,3.2,0,0,0,2.58-3.16v-3Z"/><path class="cls-1" d="M127.29,22.49a2.74,2.74,0,0,0-2.79-3c-2.69,0-2.92,2.31-2.92,3.6V35.92c0,0.85.37,3.09,2.75,3.09,1.33,0,3-.58,3-3.33V34.94h2.58v0.88c0,3.4-1.56,5.68-5.64,5.68-4.76,0-5.2-3.87-5.2-5.24V22.19A5,5,0,0,1,124.37,17c3,0,5.41,1.43,5.41,5.2v1.53h-2.48V22.49Z"/><path class="cls-1" d="M140.46,36.43H143v0.24c0,1.67-.78,4.76-4.69,4.76a4.64,4.64,0,0,1-4.93-4.89V28.72A4.51,4.51,0,0,1,138.15,24a4.73,4.73,0,0,1,4.93,4.83v4.83h-7.14v2.69c0,1.8.82,2.58,2.38,2.58a2,2,0,0,0,2.14-2.31v-0.2Zm0.07-4.66V28.89a2.15,2.15,0,0,0-2.28-2.38A2.28,2.28,0,0,0,135.94,29v2.75h4.59Z"/><path class="cls-1" d="M146.91,24.3h2.55V26A4.48,4.48,0,0,1,153.1,24c3,0,3.54,2.28,3.54,3.91V41.16h-2.55v-12c0-1.29-.51-2.62-2.14-2.62-2.07,0-2.48,2-2.48,3.09V41.16h-2.55V24.3Z"/><path class="cls-1" d="M164.27,19.16V24.3h2.38v2h-2.38V36.57a2.42,2.42,0,0,0,.68,1.87,2.45,2.45,0,0,0,1.6.41h0.27v2.31h-0.75c-1,0-2.55,0-3.47-1.05a4.61,4.61,0,0,1-.88-3.23V26.34h-1.8v-2h1.8V19.16h2.55Z"/><path class="cls-1" d="M177.07,36.43h2.55v0.24c0,1.67-.78,4.76-4.69,4.76A4.64,4.64,0,0,1,170,36.53V28.72A4.51,4.51,0,0,1,174.76,24a4.73,4.73,0,0,1,4.93,4.83v4.83h-7.14v2.69c0,1.8.82,2.58,2.38,2.58a2,2,0,0,0,2.14-2.31v-0.2Zm0.07-4.66V28.89a2.15,2.15,0,0,0-2.28-2.38A2.28,2.28,0,0,0,172.55,29v2.75h4.59Z"/><path class="cls-1" d="M186.07,24.3v2.65c1.8-2.45,3.37-2.89,4.69-2.92v2.86h-0.48c-1.87,0-4.22.75-4.22,4.45v9.83h-2.55V24.3h2.55Z"/><path class="cls-1" d="M66.27,1.68H64.85V0.52h4.06V1.68H67.49V9.07H66.27V1.68Z"/><path class="cls-1" d="M70.88,0.52h2Q75,0.52,75,3a3.16,3.16,0,0,1-.23,1.28,1.81,1.81,0,0,1-.82.86l1.32,3.9H74L72.84,5.42H72.1V9.07H70.88V0.52ZM72.1,4.34h0.7a1.24,1.24,0,0,0,.52-0.09A0.66,0.66,0,0,0,73.61,4a1.1,1.1,0,0,0,.14-0.41,4.06,4.06,0,0,0,0-.57,4.07,4.07,0,0,0,0-.57A1,1,0,0,0,73.6,2a0.68,0.68,0,0,0-.32-0.26,1.45,1.45,0,0,0-.54-0.08H72.1V4.34Z"/><path class="cls-1" d="M77.36,0.52h1.22V9.07H77.36V0.52Z"/><path class="cls-1" d="M82,1.68H80.58V0.52h4.06V1.68H83.22V9.07H82V1.68Z"/><path class="cls-1" d="M86.53,2.54a2.2,2.2,0,0,1,.18-0.91A1.9,1.9,0,0,1,87.19,1,2,2,0,0,1,87.85.58a2.12,2.12,0,0,1,1.48,0A2,2,0,0,1,90,1a1.9,1.9,0,0,1,.47.65,2.18,2.18,0,0,1,.18.91V7.05a2.17,2.17,0,0,1-.18.92,1.91,1.91,0,0,1-.47.65,2,2,0,0,1-.66.39,2.13,2.13,0,0,1-1.48,0,2,2,0,0,1-.66-0.39A1.91,1.91,0,0,1,86.71,8a2.19,2.19,0,0,1-.18-0.92V2.54Zm1.22,4.51a0.81,0.81,0,0,0,.25.65,0.91,0.91,0,0,0,1.16,0,0.81,0.81,0,0,0,.25-0.65V2.54a0.81,0.81,0,0,0-.25-0.65,0.91,0.91,0,0,0-1.16,0,0.81,0.81,0,0,0-.25.65V7.05Z"/><path class="cls-1" d="M92.87,0.52H94l1.85,5.15h0V0.52h1.22V9.07H96L94.12,3.93h0V9.07H92.87V0.52Z"/><line class="cls-2" x1="14.07" y1="27.5" x2="0.65" y2="27.5"/><line class="cls-2" x1="14.07" y1="27.5" x2="27.5" y2="40.92"/><line class="cls-3" x1="0.65" y1="27.5" x2="0.65" y2="14.07"/><line class="cls-3" x1="14.07" y1="40.92" x2="14.07" y2="27.5"/><line class="cls-3" x1="27.5" y1="40.92" x2="14.07" y2="40.92"/><line class="cls-3" x1="0.65" y1="27.5" x2="14.07" y2="40.92"/><line class="cls-4" x1="40.92" y1="27.5" x2="54.35" y2="40.92"/><polyline class="cls-5" points="54.35 27.5 54.35 40.92 40.92 40.92"/><line class="cls-6" x1="27.5" y1="27.5" x2="40.92" y2="40.92"/><polyline class="cls-7" points="27.5 40.92 27.5 27.5 40.92 27.5"/><polyline class="cls-7" points="40.92 27.5 40.92 40.92 27.5 40.92"/><line class="cls-7" x1="14.07" y1="27.5" x2="27.5" y2="40.92"/><polyline class="cls-8" points="40.92 0.65 40.92 14.07 27.5 14.07"/><line class="cls-8" x1="40.92" y1="14.07" x2="54.35" y2="27.5"/><line class="cls-9" x1="27.5" y1="0.65" x2="40.92" y2="0.65"/><line class="cls-9" x1="40.92" y1="14.07" x2="54.35" y2="14.07"/><polyline class="cls-9" points="54.35 14.07 54.35 27.5 40.92 27.5"/><line class="cls-9" x1="40.92" y1="0.65" x2="54.35" y2="14.07"/><line class="cls-10" x1="27.5" y1="0.65" x2="27.5" y2="14.07"/><line class="cls-10" x1="27.5" y1="14.07" x2="40.92" y2="27.5"/><line class="cls-11" x1="14.07" y1="0.65" x2="27.5" y2="0.65"/><polyline class="cls-11" points="27.5 27.5 27.5 14.07 40.92 14.07"/><polyline class="cls-11" points="40.92 14.07 40.92 27.5 27.5 27.5"/><line class="cls-11" x1="27.5" y1="0.65" x2="40.92" y2="14.07"/><line class="cls-11" x1="14.07" y1="0.65" x2="27.5" y2="14.07"/><polyline class="cls-12" points="14.07 0.65 14.07 14.07 0.65 14.07"/><line class="cls-12" x1="14.07" y1="14.07" x2="27.5" y2="27.5"/><polyline class="cls-13" points="0.65 14.07 0.65 0.65 14.07 0.65"/><polyline class="cls-13" points="14.07 27.5 14.07 14.07 27.5 14.07"/><polyline class="cls-13" points="27.5 14.07 27.5 27.5 14.07 27.5"/><line class="cls-13" x1="14.07" y1="0.65" x2="27.5" y2="14.07"/><line class="cls-13" x1="0.65" y1="0.65" x2="14.07" y2="14.07"/><line class="cls-13" x1="0.65" y1="14.07" x2="14.07" y2="27.5"/></svg>