<svg id="Layer_1" data-name="Layer 1" xmlns="http://www.w3.org/2000/svg" width="151.48" height="38.59" viewBox="0 0 151.48 38.59"><defs><style>.cls-1{fill:#82d1e5;}.cls-2{fill:none;stroke:#011b2a;stroke-linejoin:bevel;stroke-width:2px;}.cls-3{fill:#95d8e9;}</style></defs><title>stack-so-logo</title><rect class="cls-1" y="0.22" width="38.38" height="38.38" rx="2.44" ry="2.44"/><polyline class="cls-2" points="19.88 23.88 19.88 32.22 33.12 32.22 33.12 18.98 6.63 18.98 6.63 5.73 19.88 5.73 19.88 15.52"/><path class="cls-3" d="M62.58,19.65a4.33,4.33,0,0,0-.71-2.58,2.77,2.77,0,0,0-2.28-1,2.86,2.86,0,0,0-2.07.78,4,4,0,0,0-.88,2.89,5.5,5.5,0,0,0,.61,2.86,3.9,3.9,0,0,0,1.87,1.29l2.18,0.78a6.1,6.1,0,0,1,3,2,6.23,6.23,0,0,1,1,3.94v0.85a7.59,7.59,0,0,1-1.56,5.1,5.87,5.87,0,0,1-4.25,1.5,5.45,5.45,0,0,1-4.59-1.87,7.37,7.37,0,0,1-1-3.94V31.41H56.4v0.68a4.34,4.34,0,0,0,.68,2.52,3,3,0,0,0,2.35,1A3.09,3.09,0,0,0,62,34.54a4.38,4.38,0,0,0,.68-2.75V30.87A4.72,4.72,0,0,0,62,28a4.05,4.05,0,0,0-1.94-1.29l-2.58-.92a4.59,4.59,0,0,1-3-2.55,8.6,8.6,0,0,1-.48-3.37V19.21A5.65,5.65,0,0,1,55.78,15a5.36,5.36,0,0,1,3.91-1.36c3.26,0,5.44,2.11,5.44,5.92v0.82H62.58V19.65Z"/><path class="cls-3" d="M71.84,20.87v1.67a4.39,4.39,0,0,1,3.6-1.94,3.44,3.44,0,0,1,3.33,1.94,4.21,4.21,0,0,1,3.67-1.94c2.35,0,3.47,1.6,3.47,4V37.74H83.37v-12c0-1.46-.61-2.62-2.14-2.62s-2.35,1.46-2.35,3.09V37.74H76.33v-12c0-1.05-.41-2.62-2.11-2.62s-2.38,1.53-2.38,3.09V37.74H69.29V20.87h2.55Z"/><path class="cls-3" d="M97.23,36.07h0A4.37,4.37,0,0,1,93.39,38c-2.69,0-3.47-2-3.47-4.73,0-3.57,1.16-5.58,4.93-5.58a22.71,22.71,0,0,1,2.38.14V25.36a2.27,2.27,0,0,0-2.38-2.28,2.22,2.22,0,0,0-2.31,2.07H90.09c0-2.86,2.18-4.56,4.93-4.56,3.91,0,4.76,2.89,4.76,5.07V37.74H97.23V36.07Zm0-6.36a13.77,13.77,0,0,0-1.73-.17c-1.46,0-3,.78-3,3.26s0.71,3,2.18,3a3.2,3.2,0,0,0,2.58-3.16v-3Z"/><path class="cls-3" d="M106.61,20.87v2.65c1.8-2.45,3.37-2.89,4.69-2.92v2.86h-0.48c-1.87,0-4.22.75-4.22,4.45v9.82h-2.55V20.87h2.55Z"/><path class="cls-3" d="M118.36,15.74v5.13h2.38v2h-2.38V33.15A2.43,2.43,0,0,0,119,35a2.46,2.46,0,0,0,1.6.41h0.27v2.31h-0.75c-1,0-2.55,0-3.47-1.05a4.61,4.61,0,0,1-.88-3.23V22.91H114v-2h1.8V15.74h2.55Z"/><path class="cls-3" d="M124.51,20c0-1.77.14-3.47,1.7-4.93a6.35,6.35,0,0,1,8,0c1.56,1.46,1.7,3.16,1.7,4.93V31.72c0,1.77-.14,3.47-1.7,4.93a6.35,6.35,0,0,1-8,0c-1.56-1.46-1.7-3.16-1.7-4.93V20Zm8.87-.54a3.06,3.06,0,0,0-.88-2.48,3.48,3.48,0,0,0-4.56,0,3.06,3.06,0,0,0-.88,2.48V32.26a3.17,3.17,0,0,0,.88,2.52,3.59,3.59,0,0,0,4.56,0,3.17,3.17,0,0,0,.88-2.52V19.41Z"/><path class="cls-3" d="M148.79,19.65a4.33,4.33,0,0,0-.71-2.58,2.77,2.77,0,0,0-2.28-1,2.86,2.86,0,0,0-2.07.78,4,4,0,0,0-.88,2.89,5.5,5.5,0,0,0,.61,2.86,3.9,3.9,0,0,0,1.87,1.29l2.18,0.78a6.1,6.1,0,0,1,3,2,6.23,6.23,0,0,1,1,3.94v0.85a7.59,7.59,0,0,1-1.56,5.1,5.87,5.87,0,0,1-4.25,1.5,5.45,5.45,0,0,1-4.59-1.87,7.37,7.37,0,0,1-1-3.94V31.41h2.55v0.68a4.34,4.34,0,0,0,.68,2.52,3,3,0,0,0,2.35,1,3.09,3.09,0,0,0,2.62-1.05,4.38,4.38,0,0,0,.68-2.75V30.87a4.72,4.72,0,0,0-.68-2.82,4.05,4.05,0,0,0-1.94-1.29l-2.58-.92a4.59,4.59,0,0,1-3-2.55,8.6,8.6,0,0,1-.48-3.37V19.21A5.65,5.65,0,0,1,142,15a5.36,5.36,0,0,1,3.91-1.36c3.26,0,5.44,2.11,5.44,5.92v0.82h-2.55V19.65Z"/><path class="cls-3" d="M53.56,1.22H52.15V0.07H56.2V1.22H54.79V8.62H53.56V1.22Z"/><path class="cls-3" d="M58.18,0.07h2q2.16,0,2.16,2.51a3.16,3.16,0,0,1-.23,1.28,1.8,1.8,0,0,1-.82.86l1.32,3.9h-1.3L60.13,5H59.4V8.62H58.18V0.07ZM59.4,3.89h0.7a1.23,1.23,0,0,0,.52-0.09,0.66,0.66,0,0,0,.29-0.26A1.1,1.1,0,0,0,61,3.13a4.06,4.06,0,0,0,0-.57A4.06,4.06,0,0,0,61,2a1,1,0,0,0-.15-0.42,0.68,0.68,0,0,0-.32-0.26A1.44,1.44,0,0,0,60,1.22H59.4V3.89Z"/><path class="cls-3" d="M64.66,0.07h1.22V8.62H64.66V0.07Z"/><path class="cls-3" d="M69.29,1.22H67.88V0.07h4.06V1.22H70.52V8.62H69.29V1.22Z"/><path class="cls-3" d="M73.83,2.09A2.19,2.19,0,0,1,74,1.18,1.9,1.9,0,0,1,74.48.52,2,2,0,0,1,75.14.13a2.13,2.13,0,0,1,1.48,0,2.05,2.05,0,0,1,.66.39,1.9,1.9,0,0,1,.47.65,2.18,2.18,0,0,1,.18.91V6.6a2.17,2.17,0,0,1-.18.92,1.91,1.91,0,0,1-.47.65,2,2,0,0,1-.66.39,2.13,2.13,0,0,1-1.48,0,2,2,0,0,1-.66-0.39A1.91,1.91,0,0,1,74,7.52a2.19,2.19,0,0,1-.18-0.92V2.09ZM75.05,6.6a0.81,0.81,0,0,0,.25.65,0.91,0.91,0,0,0,1.16,0,0.81,0.81,0,0,0,.25-0.65V2.09a0.81,0.81,0,0,0-.25-0.65,0.91,0.91,0,0,0-1.16,0,0.81,0.81,0,0,0-.25.65V6.6Z"/><path class="cls-3" d="M80.17,0.07h1.18l1.85,5.15h0V0.07h1.22V8.62H83.29L81.41,3.48h0V8.62H80.17V0.07Z"/></svg>