<svg id="Layer_1" data-name="Layer 1" xmlns="http://www.w3.org/2000/svg" width="102.55" height="26.04" viewBox="0 0 102.55 26.04"><defs><style>.cls-1{fill:#95d8e9;}.cls-2{fill:#82d1e5;}.cls-3{fill:#011b2a;}</style></defs><title>table-so</title><path class="cls-1" d="M42.52,13.31A2.9,2.9,0,0,0,42,11.58a1.86,1.86,0,0,0-1.52-.66,1.91,1.91,0,0,0-1.39.52,2.64,2.64,0,0,0-.59,1.93A3.68,3.68,0,0,0,39,15.28a2.61,2.61,0,0,0,1.25.87l1.46,0.52a4.08,4.08,0,0,1,2,1.34,4.16,4.16,0,0,1,.64,2.64v0.57a5.08,5.08,0,0,1-1,3.41,3.92,3.92,0,0,1-2.84,1,3.65,3.65,0,0,1-3.07-1.25,4.94,4.94,0,0,1-.68-2.64V21.18h1.71v0.46a2.9,2.9,0,0,0,.46,1.68,2,2,0,0,0,1.57.66,2.07,2.07,0,0,0,1.75-.71,2.94,2.94,0,0,0,.46-1.84V20.81a3.16,3.16,0,0,0-.46-1.89,2.73,2.73,0,0,0-1.3-.87l-1.73-.61a3.08,3.08,0,0,1-2-1.71,5.76,5.76,0,0,1-.32-2.25V13A3.78,3.78,0,0,1,38,10.17a3.59,3.59,0,0,1,2.62-.91c2.18,0,3.64,1.41,3.64,4v0.55H42.52V13.31Z"/><path class="cls-1" d="M48.81,14.12v1.12a2.94,2.94,0,0,1,2.41-1.3,2.3,2.3,0,0,1,2.23,1.3,2.82,2.82,0,0,1,2.46-1.3c1.57,0,2.32,1.07,2.32,2.66v8.8H56.53V17.35a1.47,1.47,0,0,0-1.43-1.75c-1.07,0-1.57,1-1.57,2.07v7.74H51.82V17.35a1.52,1.52,0,0,0-1.41-1.75c-1.09,0-1.59,1-1.59,2.07v7.74H47.11V14.12h1.71Z"/><path class="cls-1" d="M65.9,24.29h0a2.93,2.93,0,0,1-2.55,1.3c-1.8,0-2.32-1.37-2.32-3.16,0-2.39.77-3.73,3.3-3.73a15.21,15.21,0,0,1,1.59.09V17.13A1.52,1.52,0,0,0,64.3,15.6,1.49,1.49,0,0,0,62.76,17H61.12a3,3,0,0,1,3.3-3c2.62,0,3.18,1.93,3.18,3.39v8.08H65.9V24.29Zm0-4.25a9.25,9.25,0,0,0-1.16-.11,1.93,1.93,0,0,0-2,2.18c0,1.59.48,2,1.46,2A2.14,2.14,0,0,0,65.9,22V20Z"/><path class="cls-1" d="M72.26,14.12V15.9c1.21-1.64,2.25-1.93,3.14-2v1.91H75.08c-1.25,0-2.82.5-2.82,3v6.57H70.56V14.12h1.71Z"/><path class="cls-1" d="M80.2,10.69v3.44H81.8v1.37H80.2v6.85a1.62,1.62,0,0,0,.46,1.25,1.64,1.64,0,0,0,1.07.27h0.18v1.55h-0.5a3.09,3.09,0,0,1-2.32-.71,3.08,3.08,0,0,1-.59-2.16V15.49H77.29V14.12H78.5V10.69H80.2Z"/><path class="cls-1" d="M84.41,13.51a4,4,0,0,1,1.14-3.3,4.25,4.25,0,0,1,5.37,0,4,4,0,0,1,1.14,3.3v7.87a4,4,0,0,1-1.14,3.3,4.25,4.25,0,0,1-5.37,0,4,4,0,0,1-1.14-3.3V13.51Zm5.94-.36a2,2,0,0,0-.59-1.66,2.33,2.33,0,0,0-3,0,2,2,0,0,0-.59,1.66v8.6a2.12,2.12,0,0,0,.59,1.68,2.4,2.4,0,0,0,3,0,2.12,2.12,0,0,0,.59-1.68v-8.6Z"/><path class="cls-1" d="M100.76,13.31a2.9,2.9,0,0,0-.48-1.73,1.85,1.85,0,0,0-1.52-.66,1.91,1.91,0,0,0-1.39.52,2.64,2.64,0,0,0-.59,1.93,3.68,3.68,0,0,0,.41,1.91,2.61,2.61,0,0,0,1.25.87l1.46,0.52a4.07,4.07,0,0,1,2,1.34,4.16,4.16,0,0,1,.64,2.64v0.57a5.08,5.08,0,0,1-1,3.41,3.92,3.92,0,0,1-2.84,1,3.65,3.65,0,0,1-3.07-1.25,4.93,4.93,0,0,1-.68-2.64V21.18h1.71v0.46a2.9,2.9,0,0,0,.46,1.68,2,2,0,0,0,1.57.66,2.08,2.08,0,0,0,1.75-.71,2.94,2.94,0,0,0,.46-1.84V20.81a3.16,3.16,0,0,0-.46-1.89,2.73,2.73,0,0,0-1.3-.87l-1.73-.61a3.08,3.08,0,0,1-2-1.71,5.76,5.76,0,0,1-.32-2.25V13a3.78,3.78,0,0,1,1.14-2.84,3.59,3.59,0,0,1,2.62-.91c2.18,0,3.64,1.41,3.64,4v0.55h-1.71V13.31Z"/><path class="cls-1" d="M36.49,1H35.54V0.21h2.71V1H37.31V5.93H36.49V1Z"/><path class="cls-1" d="M39.7,0.21H41q1.45,0,1.45,1.68a2.12,2.12,0,0,1-.16.85,1.21,1.21,0,0,1-.55.57l0.88,2.61H41.77L41,3.49H40.52V5.93H39.7V0.21Zm0.82,2.55H41a0.83,0.83,0,0,0,.35-0.06,0.44,0.44,0,0,0,.2-0.17,0.73,0.73,0,0,0,.09-0.28,2.73,2.73,0,0,0,0-.38,2.73,2.73,0,0,0,0-.38,0.69,0.69,0,0,0-.1-0.28A0.45,0.45,0,0,0,41.31,1,1,1,0,0,0,40.95,1H40.52V2.76Z"/><path class="cls-1" d="M44.17,0.21H45V5.93H44.17V0.21Z"/><path class="cls-1" d="M47.41,1H46.46V0.21h2.71V1H48.23V5.93H47.41V1Z"/><path class="cls-1" d="M50.57,1.56A1.46,1.46,0,0,1,50.69,1,1.27,1.27,0,0,1,51,.51,1.36,1.36,0,0,1,51.45.25a1.42,1.42,0,0,1,1,0,1.37,1.37,0,0,1,.44.26,1.27,1.27,0,0,1,.32.44,1.46,1.46,0,0,1,.12.61v3a1.46,1.46,0,0,1-.12.61,1.28,1.28,0,0,1-.32.43,1.37,1.37,0,0,1-.44.26,1.42,1.42,0,0,1-1,0A1.36,1.36,0,0,1,51,5.63a1.28,1.28,0,0,1-.32-0.43,1.46,1.46,0,0,1-.12-0.61v-3Zm0.82,3a0.54,0.54,0,0,0,.17.44,0.61,0.61,0,0,0,.78,0,0.54,0.54,0,0,0,.16-0.44v-3a0.54,0.54,0,0,0-.16-0.44,0.61,0.61,0,0,0-.78,0,0.54,0.54,0,0,0-.17.44v3Z"/><path class="cls-1" d="M55,0.21h0.79L57,3.66h0V0.21h0.82V5.93H57L55.79,2.49h0V5.93H55V0.21Z"/><rect class="cls-2" width="26.04" height="26.04" rx="2.44" ry="2.44"/><polygon class="cls-3" points="22.47 22.39 13.48 22.39 12.81 21.71 12.81 16.05 14.16 16.05 14.16 21.04 21.79 21.04 21.79 13.41 4.5 13.41 3.82 12.73 3.82 3.74 4.5 3.06 13.48 3.06 14.16 3.74 14.16 10.38 12.81 10.38 12.81 4.42 5.18 4.42 5.18 12.05 22.47 12.05 23.15 12.73 23.15 21.71 22.47 22.39"/></svg>