<svg id="Layer_1" data-name="Layer 1" xmlns="http://www.w3.org/2000/svg" width="151.17" height="29.8" viewBox="0 0 151.17 29.8"><defs><style>.cls-1{fill:#f28f24;}.cls-2{fill:#f28f23;}.cls-3{fill:#011b2a;}</style></defs><title>cp-table</title><path class="cls-1" d="M49.53,14.44a1.83,1.83,0,0,0-1.87-2c-1.8,0-2,1.55-2,2.41v8.58a1.89,1.89,0,0,0,1.84,2.07c0.89,0,2-.39,2-2.23v-0.5h1.73v0.59c0,2.27-1,3.8-3.78,3.8A3.24,3.24,0,0,1,44,23.65V14.23a3.37,3.37,0,0,1,3.57-3.46c2,0,3.62,1,3.62,3.48v1H49.53V14.44Z"/><path class="cls-1" d="M53.69,18.64a3.25,3.25,0,0,1,6.51,0v5.26a3.25,3.25,0,0,1-6.51,0V18.64ZM58.49,19a1.57,1.57,0,1,0-3.09,0V23.6c0,1.18.55,1.84,1.55,1.84s1.55-.61,1.55-1.84V19Z"/><path class="cls-1" d="M63,15.64h1.71v1.12a3,3,0,0,1,2.43-1.3c2,0,2.37,1.52,2.37,2.62v8.85H67.76V18.87a1.49,1.49,0,0,0-1.43-1.75,1.82,1.82,0,0,0-1.66,2.07v7.73H63V15.64Z"/><path class="cls-1" d="M74.66,12.21v3.44h1.59V17H74.66v6.85a1.62,1.62,0,0,0,.46,1.25,1.64,1.64,0,0,0,1.07.27h0.18v1.55h-0.5a3.09,3.09,0,0,1-2.32-.71,3.09,3.09,0,0,1-.59-2.16V17H71.74V15.64h1.21V12.21h1.71Z"/><path class="cls-1" d="M83.49,25.81h0a2.93,2.93,0,0,1-2.55,1.3c-1.8,0-2.32-1.37-2.32-3.16,0-2.39.77-3.73,3.3-3.73a15.19,15.19,0,0,1,1.59.09V18.64a1.52,1.52,0,0,0-1.59-1.52,1.49,1.49,0,0,0-1.55,1.39H78.71a3,3,0,0,1,3.3-3c2.62,0,3.19,1.93,3.19,3.39v8.08H83.49V25.81Zm0-4.25a9.24,9.24,0,0,0-1.16-.11,1.93,1.93,0,0,0-2,2.18c0,1.59.48,2,1.46,2a2.14,2.14,0,0,0,1.73-2.12v-2Z"/><path class="cls-1" d="M89.73,11.32V13H88V11.32h1.71ZM88,15.64h1.71V26.93H88V15.64Z"/><path class="cls-1" d="M92.55,15.64h1.71v1.12a3,3,0,0,1,2.43-1.3c2,0,2.37,1.52,2.37,2.62v8.85H97.35V18.87a1.49,1.49,0,0,0-1.43-1.75,1.82,1.82,0,0,0-1.66,2.07v7.73H92.55V15.64Z"/><path class="cls-1" d="M106.53,23.76h1.71v0.16a3,3,0,0,1-3.14,3.19,3.11,3.11,0,0,1-3.3-3.28V18.6A3,3,0,0,1,105,15.46a3.16,3.16,0,0,1,3.3,3.23v3.23h-4.78v1.8a1.46,1.46,0,0,0,1.59,1.73,1.34,1.34,0,0,0,1.43-1.55V23.76Zm0-3.12V18.71a1.44,1.44,0,0,0-1.52-1.59,1.52,1.52,0,0,0-1.55,1.68v1.84h3.07Z"/><path class="cls-1" d="M112.65,15.64v1.77c1.21-1.64,2.25-1.93,3.14-2v1.91h-0.32c-1.25,0-2.82.5-2.82,3v6.57h-1.71V15.64h1.71Z"/><path class="cls-1" d="M118.14,11h3.46c2.87,0,3.94,1.87,3.94,4v1.41a3.63,3.63,0,0,1-3.59,3.89h-2.09v6.57h-1.71V11Zm1.71,7.9h1.62a2.16,2.16,0,0,0,2.37-2.16V14.85a2.12,2.12,0,0,0-2.34-2.37h-1.64V18.9Z"/><path class="cls-1" d="M129.73,11.32V13H128V11.32h1.71ZM128,15.64h1.71V26.93H128V15.64Z"/><path class="cls-1" d="M134.24,11v13.1a1.16,1.16,0,0,0,1.25,1.25h0.25v1.57h-0.52a2.41,2.41,0,0,1-2.68-2.5V11h1.71Z"/><path class="cls-1" d="M137.9,18.64a3.25,3.25,0,0,1,6.51,0v5.26a3.25,3.25,0,0,1-6.51,0V18.64ZM142.7,19a1.57,1.57,0,1,0-3.09,0V23.6c0,1.18.55,1.84,1.55,1.84s1.55-.61,1.55-1.84V19Z"/><path class="cls-1" d="M149.46,12.21v3.44h1.59V17h-1.59v6.85a1.62,1.62,0,0,0,.46,1.25,1.64,1.64,0,0,0,1.07.27h0.18v1.55h-0.5a3.09,3.09,0,0,1-2.32-.71,3.08,3.08,0,0,1-.59-2.16V17h-1.21V15.64h1.21V12.21h1.71Z"/><path class="cls-1" d="M43.51,2H42.57V1.21h2.71V2H44.33V6.92H43.51V2Z"/><path class="cls-1" d="M46.73,1.21H48q1.45,0,1.45,1.68a2.12,2.12,0,0,1-.16.85,1.21,1.21,0,0,1-.55.57l0.88,2.61H48.8L48,4.48H47.55V6.92H46.73V1.21Zm0.82,2.55H48a0.83,0.83,0,0,0,.35-0.06,0.44,0.44,0,0,0,.2-0.17,0.74,0.74,0,0,0,.09-0.28,2.73,2.73,0,0,0,0-.38,2.74,2.74,0,0,0,0-.38,0.69,0.69,0,0,0-.1-0.28A0.45,0.45,0,0,0,48.34,2,1,1,0,0,0,48,2H47.55V3.76Z"/><path class="cls-1" d="M51.2,1.21H52V6.92H51.2V1.21Z"/><path class="cls-1" d="M54.43,2H53.49V1.21H56.2V2H55.25V6.92H54.43V2Z"/><path class="cls-1" d="M57.6,2.56a1.47,1.47,0,0,1,.12-0.61A1.28,1.28,0,0,1,58,1.51a1.37,1.37,0,0,1,.44-0.26,1.43,1.43,0,0,1,1,0,1.37,1.37,0,0,1,.44.26,1.28,1.28,0,0,1,.32.44,1.47,1.47,0,0,1,.12.61v3a1.46,1.46,0,0,1-.12.61,1.29,1.29,0,0,1-.32.43,1.37,1.37,0,0,1-.44.26,1.42,1.42,0,0,1-1,0A1.37,1.37,0,0,1,58,6.62a1.29,1.29,0,0,1-.32-0.43,1.46,1.46,0,0,1-.12-0.61v-3Zm0.82,3a0.54,0.54,0,0,0,.17.44,0.61,0.61,0,0,0,.78,0,0.54,0.54,0,0,0,.16-0.44v-3a0.54,0.54,0,0,0-.16-0.44,0.61,0.61,0,0,0-.78,0,0.54,0.54,0,0,0-.17.44v3Z"/><path class="cls-1" d="M62,1.21h0.79L64,4.65h0V1.21h0.82V6.92H64.06L62.81,3.49h0V6.92H62V1.21Z"/><path class="cls-2" d="M20,2L32.66,23.86a4,4,0,0,1-3.43,5.94H4A4,4,0,0,1,.54,23.86L13.17,2A4,4,0,0,1,20,2Z"/><path class="cls-3" d="M16.6,5.41a0.15,0.15,0,0,1,.14.11l1.19,3.76v4l8.36,6.14v2.26l-5.23-3.09H17.93l-0.79,5.28,3,1.34v1.33l-3.58-.86L13,26.53V25.19l3-1.34-0.79-5.28H12.13L6.9,21.67V19.41l8.36-6.14v-4l1.19-3.76a0.15,0.15,0,0,1,.14-0.11M16.6,4a1.59,1.59,0,0,0-1.52,1.11L13.89,8.84l-0.07.44v3.26L6.05,18.25,5.46,19.41v2.26l2.17,1.24L12.53,20H14l0.45,3-2,.89L11.6,25.19v1.33l1.78,1.4,3.2-.78,3.24,0.78,1.78-1.4V25.19l-0.86-1.32-2-.89,0.45-3h1.49l4.89,2.89,2.17-1.24V19.41l-0.59-1.16-7.77-5.71V9.28l-0.07-.43L18.12,5.08A1.59,1.59,0,0,0,16.6,4h0Z"/></svg>