<svg id="Layer_1" data-name="Layer 1" xmlns="http://www.w3.org/2000/svg" width="128.27" height="27.46" viewBox="0 0 128.27 27.46"><defs><style>.cls-1{fill:#c3c4bb;}.cls-2{fill:#b3b3b3;}.cls-3{fill:#fff;}.cls-4{fill:#599298;}.cls-5{fill:#82d1e5;}.cls-6{fill:#3b5967;}.cls-7{fill:#5b87a8;}.cls-8{fill:#b06828;}.cls-9{fill:#f09922;}.cls-10{fill:#b13f26;}.cls-11{fill:#f06324;}.cls-12{fill:#801518;}.cls-13{fill:#c42c28;}</style></defs><title>table-dc</title><path class="cls-1" d="M47.92,11.31A4.06,4.06,0,0,1,51,12.49a4.52,4.52,0,0,1,1,3.19v7.19A4.51,4.51,0,0,1,51,26a4.06,4.06,0,0,1-3.12,1.18H44.74V11.31h3.19Zm2.37,11.42V15.81a3.08,3.08,0,0,0-.64-2.18A2.31,2.31,0,0,0,47.83,13H46.45v12.6h1.39a2.31,2.31,0,0,0,1.82-.66A3.08,3.08,0,0,0,50.29,22.73Z"/><path class="cls-1" d="M59.6,26.12h0A2.93,2.93,0,0,1,57,27.41c-1.8,0-2.32-1.37-2.32-3.16,0-2.39.77-3.73,3.3-3.73a15.2,15.2,0,0,1,1.59.09V19A1.52,1.52,0,0,0,58,17.43a1.49,1.49,0,0,0-1.55,1.39H54.82a3,3,0,0,1,3.3-3c2.62,0,3.19,1.93,3.19,3.39v8.08H59.6V26.12Zm0-4.25a9.28,9.28,0,0,0-1.16-.11,1.93,1.93,0,0,0-2,2.18c0,1.59.48,2,1.46,2a2.14,2.14,0,0,0,1.73-2.12v-2Z"/><path class="cls-1" d="M66.42,12.51v3.44H68v1.37H66.42v6.85a1.62,1.62,0,0,0,.46,1.25,1.64,1.64,0,0,0,1.07.27h0.18v1.55h-0.5a3.09,3.09,0,0,1-2.32-.71,3.09,3.09,0,0,1-.59-2.16V17.31H63.51V15.95h1.21V12.51h1.71Z"/><path class="cls-1" d="M75.25,26.12h0a2.93,2.93,0,0,1-2.55,1.3c-1.8,0-2.32-1.37-2.32-3.16,0-2.39.77-3.73,3.3-3.73a15.19,15.19,0,0,1,1.59.09V19a1.52,1.52,0,0,0-1.59-1.53,1.49,1.49,0,0,0-1.55,1.39H70.47a3,3,0,0,1,3.3-3c2.62,0,3.19,1.93,3.19,3.39v8.08H75.25V26.12Zm0-4.25a9.27,9.27,0,0,0-1.16-.11,1.93,1.93,0,0,0-2,2.18c0,1.59.48,2,1.46,2a2.14,2.14,0,0,0,1.73-2.12v-2Z"/><path class="cls-1" d="M85.34,14.74a1.83,1.83,0,0,0-1.87-2c-1.8,0-2,1.55-2,2.41v8.58a1.89,1.89,0,0,0,1.84,2.07c0.89,0,2-.39,2-2.23v-0.5h1.73v0.59c0,2.28-1,3.8-3.78,3.8A3.24,3.24,0,0,1,79.81,24V14.54a3.37,3.37,0,0,1,3.57-3.46c2,0,3.62,1,3.62,3.48v1H85.34V14.74Z"/><path class="cls-1" d="M94.24,24.07h1.71v0.16a3,3,0,0,1-3.14,3.19,3.11,3.11,0,0,1-3.3-3.28V18.9a3,3,0,0,1,3.19-3.14A3.16,3.16,0,0,1,96,19v3.23H91.21V24a1.46,1.46,0,0,0,1.59,1.73,1.34,1.34,0,0,0,1.43-1.55V24.07Zm0-3.12V19a1.44,1.44,0,0,0-1.52-1.59,1.52,1.52,0,0,0-1.55,1.68V21h3.07Z"/><path class="cls-1" d="M98.65,15.95h1.71v1.12a3,3,0,0,1,2.43-1.3c2,0,2.37,1.52,2.37,2.62v8.85h-1.71V19.18A1.49,1.49,0,0,0,102,17.43a1.82,1.82,0,0,0-1.66,2.07v7.74H98.65V15.95Z"/><path class="cls-1" d="M110.35,12.51v3.44h1.59v1.37h-1.59v6.85a1.62,1.62,0,0,0,.46,1.25,1.64,1.64,0,0,0,1.07.27h0.18v1.55h-0.5a3.09,3.09,0,0,1-2.32-.71,3.09,3.09,0,0,1-.59-2.16V17.31h-1.21V15.95h1.21V12.51h1.71Z"/><path class="cls-1" d="M119,24.07h1.71v0.16a3,3,0,0,1-3.14,3.19,3.11,3.11,0,0,1-3.3-3.28V18.9a3,3,0,0,1,3.19-3.14,3.16,3.16,0,0,1,3.3,3.23v3.23H116V24a1.46,1.46,0,0,0,1.59,1.73A1.34,1.34,0,0,0,119,24.21V24.07Zm0-3.12V19a1.44,1.44,0,0,0-1.52-1.59A1.52,1.52,0,0,0,116,19.11V21h3.07Z"/><path class="cls-1" d="M125.13,15.95v1.77c1.21-1.64,2.25-1.93,3.14-2v1.91h-0.32c-1.25,0-2.82.5-2.82,3v6.58h-1.71V15.95h1.71Z"/><path class="cls-1" d="M44.14,0.82H43.19V0h2.71V0.82H45V5.76H44.14V0.82Z"/><path class="cls-1" d="M47.36,0h1.32q1.45,0,1.45,1.68a2.12,2.12,0,0,1-.16.85,1.21,1.21,0,0,1-.55.57l0.88,2.61H49.43L48.66,3.32H48.17V5.76H47.36V0ZM48.17,2.6h0.47A0.83,0.83,0,0,0,49,2.54a0.44,0.44,0,0,0,.2-0.17,0.74,0.74,0,0,0,.09-0.28,2.74,2.74,0,0,0,0-.38,2.72,2.72,0,0,0,0-.38A0.69,0.69,0,0,0,49.17,1,0.46,0.46,0,0,0,49,.88,1,1,0,0,0,48.6.82H48.17V2.6Z"/><path class="cls-1" d="M51.83,0h0.82V5.76H51.83V0Z"/><path class="cls-1" d="M55.06,0.82H54.11V0h2.71V0.82H55.88V5.76H55.06V0.82Z"/><path class="cls-1" d="M58.22,1.4A1.46,1.46,0,0,1,58.34.79,1.27,1.27,0,0,1,58.66.35,1.35,1.35,0,0,1,59.1.09a1.42,1.42,0,0,1,1,0,1.36,1.36,0,0,1,.44.26,1.27,1.27,0,0,1,.32.44A1.46,1.46,0,0,1,61,1.4v3a1.46,1.46,0,0,1-.12.61,1.29,1.29,0,0,1-.32.43,1.37,1.37,0,0,1-.44.26,1.42,1.42,0,0,1-1,0,1.37,1.37,0,0,1-.44-0.26A1.29,1.29,0,0,1,58.34,5a1.46,1.46,0,0,1-.12-0.61v-3Zm0.82,3a0.54,0.54,0,0,0,.17.44,0.61,0.61,0,0,0,.78,0,0.54,0.54,0,0,0,.16-0.44v-3A0.54,0.54,0,0,0,60,1a0.61,0.61,0,0,0-.78,0A0.54,0.54,0,0,0,59,1.4v3Z"/><path class="cls-1" d="M62.6,0h0.79l1.24,3.44h0V0h0.82V5.76H64.69L63.44,2.33h0V5.76H62.6V0Z"/><path class="cls-2" d="M8.81,18.82H0.41a0.41,0.41,0,0,1,0-.81H8.81A0.41,0.41,0,1,1,8.81,18.82Z"/><path class="cls-2" d="M17.22,27.23a0.4,0.4,0,0,1-.29-0.12L8.53,18.7a0.41,0.41,0,0,1,.57-0.57l8.41,8.41A0.41,0.41,0,0,1,17.22,27.23Z"/><path class="cls-3" d="M0.41,18.82A0.41,0.41,0,0,1,0,18.42V10a0.41,0.41,0,1,1,.81,0v8.41A0.41,0.41,0,0,1,.41,18.82Z"/><path class="cls-3" d="M8.81,27.23a0.41,0.41,0,0,1-.41-0.41V18.42a0.41,0.41,0,1,1,.81,0v8.41A0.41,0.41,0,0,1,8.81,27.23Z"/><path class="cls-3" d="M17.22,27.23H8.81a0.41,0.41,0,0,1,0-.81h8.41A0.41,0.41,0,0,1,17.22,27.23Z"/><path class="cls-3" d="M8.81,27.23a0.4,0.4,0,0,1-.29-0.12L0.12,18.7a0.41,0.41,0,0,1,.57-0.57L9.1,26.54A0.41,0.41,0,0,1,8.81,27.23Z"/><path class="cls-4" d="M34,27.23a0.4,0.4,0,0,1-.29-0.12L25.34,18.7a0.41,0.41,0,1,1,.57-0.57l8.41,8.41A0.41,0.41,0,0,1,34,27.23Z"/><path class="cls-5" d="M34,27.23H25.63a0.41,0.41,0,0,1,0-.81h8v-8a0.41,0.41,0,0,1,.81,0v8.41A0.41,0.41,0,0,1,34,27.23Z"/><path class="cls-6" d="M25.63,27.23a0.4,0.4,0,0,1-.29-0.12L16.94,18.7a0.41,0.41,0,0,1,.57-0.57l8.41,8.41A0.41,0.41,0,0,1,25.63,27.23Z"/><path class="cls-7" d="M17.22,27.23a0.41,0.41,0,0,1-.41-0.41V18.42A0.41,0.41,0,0,1,17.22,18h8.41a0.41,0.41,0,0,1,0,.81h-8v8A0.41,0.41,0,0,1,17.22,27.23Z"/><path class="cls-7" d="M25.63,27.23H17.22a0.41,0.41,0,0,1,0-.81h8v-8a0.41,0.41,0,0,1,.81,0v8.41A0.41,0.41,0,0,1,25.63,27.23Z"/><path class="cls-7" d="M17.22,27.23a0.4,0.4,0,0,1-.29-0.12L8.53,18.7a0.41,0.41,0,0,1,.57-0.57l8.41,8.41A0.41,0.41,0,0,1,17.22,27.23Z"/><path class="cls-8" d="M25.63,10.41H17.22a0.41,0.41,0,0,1,0-.81h8v-8a0.41,0.41,0,0,1,.81,0V10A0.41,0.41,0,0,1,25.63,10.41Z"/><path class="cls-8" d="M34,18.82a0.4,0.4,0,0,1-.29-0.12l-8.41-8.41a0.41,0.41,0,1,1,.57-0.57l8.41,8.41A0.41,0.41,0,0,1,34,18.82Z"/><path class="cls-9" d="M25.63,2H17.22a0.41,0.41,0,1,1,0-.81h8.41A0.41,0.41,0,1,1,25.63,2Z"/><path class="cls-9" d="M34,10.41H25.63a0.41,0.41,0,0,1,0-.81H34A0.41,0.41,0,0,1,34,10.41Z"/><path class="cls-9" d="M34,18.82H25.63a0.41,0.41,0,0,1,0-.81h8V10a0.41,0.41,0,1,1,.81,0v8.41A0.41,0.41,0,0,1,34,18.82Z"/><path class="cls-9" d="M34,10.41a0.4,0.4,0,0,1-.29-0.12L25.34,1.89a0.41,0.41,0,1,1,.57-0.57l8.41,8.41A0.41,0.41,0,0,1,34,10.41Z"/><path class="cls-10" d="M17.22,10.41A0.41,0.41,0,0,1,16.82,10V1.6a0.41,0.41,0,0,1,.81,0V10A0.41,0.41,0,0,1,17.22,10.41Z"/><path class="cls-10" d="M25.63,18.82a0.4,0.4,0,0,1-.29-0.12l-8.41-8.41a0.41,0.41,0,1,1,.57-0.57l8.41,8.41A0.41,0.41,0,0,1,25.63,18.82Z"/><path class="cls-11" d="M17.22,2H8.81a0.41,0.41,0,0,1,0-.81h8.41A0.41,0.41,0,1,1,17.22,2Z"/><path class="cls-11" d="M17.22,18.82a0.41,0.41,0,0,1-.41-0.41V10a0.41,0.41,0,0,1,.41-0.41h8.41a0.41,0.41,0,0,1,0,.81h-8v8A0.41,0.41,0,0,1,17.22,18.82Z"/><path class="cls-11" d="M25.63,18.82H17.22a0.41,0.41,0,0,1,0-.81h8V10A0.41,0.41,0,1,1,26,10v8.41A0.41,0.41,0,0,1,25.63,18.82Z"/><path class="cls-11" d="M25.63,10.41a0.4,0.4,0,0,1-.29-0.12L16.94,1.89a0.41,0.41,0,1,1,.57-0.57l8.41,8.41A0.41,0.41,0,0,1,25.63,10.41Z"/><path class="cls-11" d="M17.22,10.41a0.4,0.4,0,0,1-.29-0.12L8.53,1.89A0.41,0.41,0,0,1,9.1,1.31l8.41,8.41A0.41,0.41,0,0,1,17.22,10.41Z"/><path class="cls-12" d="M8.81,10.41H0.41a0.41,0.41,0,0,1,0-.81h8v-8a0.41,0.41,0,0,1,.81,0V10A0.41,0.41,0,0,1,8.81,10.41Z"/><path class="cls-12" d="M17.22,18.82a0.4,0.4,0,0,1-.29-0.12L8.53,10.29A0.41,0.41,0,0,1,9.1,9.72l8.41,8.41A0.41,0.41,0,0,1,17.22,18.82Z"/><path class="cls-13" d="M0.41,10.41A0.41,0.41,0,0,1,0,10V1.6A0.41,0.41,0,0,1,.41,1.19H8.81a0.41,0.41,0,1,1,0,.81h-8v8A0.41,0.41,0,0,1,.41,10.41Z"/><path class="cls-13" d="M8.81,18.82a0.41,0.41,0,0,1-.41-0.41V10A0.41,0.41,0,0,1,8.81,9.6h8.41a0.41,0.41,0,0,1,0,.81h-8v8A0.41,0.41,0,0,1,8.81,18.82Z"/><path class="cls-13" d="M17.22,18.82H8.81a0.41,0.41,0,0,1,0-.81h8V10a0.41,0.41,0,1,1,.81,0v8.41A0.41,0.41,0,0,1,17.22,18.82Z"/><path class="cls-13" d="M17.22,10.41a0.4,0.4,0,0,1-.29-0.12L8.53,1.89A0.41,0.41,0,0,1,9.1,1.31l8.41,8.41A0.41,0.41,0,0,1,17.22,10.41Z"/><path class="cls-13" d="M8.81,10.41a0.4,0.4,0,0,1-.29-0.12L0.12,1.89A0.41,0.41,0,0,1,.69,1.31L9.1,9.72A0.41,0.41,0,0,1,8.81,10.41Z"/><path class="cls-13" d="M8.81,18.82a0.4,0.4,0,0,1-.29-0.12L0.12,10.29A0.41,0.41,0,1,1,.69,9.72L9.1,18.13A0.41,0.41,0,0,1,8.81,18.82Z"/></svg>