<svg id="Layer_1" data-name="Layer 1" xmlns="http://www.w3.org/2000/svg" width="71.7" height="54.06" viewBox="0 0 71.7 54.06"><defs><style>.cls-1,.cls-10,.cls-11,.cls-12,.cls-2,.cls-3,.cls-4,.cls-5,.cls-6,.cls-7,.cls-8,.cls-9{fill:none;stroke-linecap:round;stroke-linejoin:round;stroke-width:1.13px;}.cls-1{stroke:#b3b3b3;}.cls-2{stroke:#fff;}.cls-3{stroke:#599298;}.cls-4{stroke:#82d1e5;}.cls-5{stroke:#3b5967;}.cls-6{stroke:#5b87a8;}.cls-7{stroke:#b06828;}.cls-8{stroke:#f09922;}.cls-9{stroke:#b13f26;}.cls-10{stroke:#f06324;}.cls-11{stroke:#801518;}.cls-12{stroke:#c42c28;}</style></defs><title>triton</title><line class="cls-1" x1="18.21" y1="35.85" x2="0.57" y2="35.85"/><line class="cls-1" x1="18.21" y1="35.85" x2="35.85" y2="53.49"/><line class="cls-2" x1="0.57" y1="35.85" x2="0.57" y2="18.21"/><line class="cls-2" x1="18.21" y1="53.49" x2="18.21" y2="35.85"/><line class="cls-2" x1="35.85" y1="53.49" x2="18.21" y2="53.49"/><line class="cls-2" x1="0.57" y1="35.85" x2="18.21" y2="53.49"/><line class="cls-3" x1="53.49" y1="35.85" x2="71.13" y2="53.49"/><polyline class="cls-4" points="71.13 35.85 71.13 53.49 53.49 53.49"/><line class="cls-5" x1="35.85" y1="35.85" x2="53.49" y2="53.49"/><polyline class="cls-6" points="35.85 53.49 35.85 35.85 53.49 35.85"/><polyline class="cls-6" points="53.49 35.85 53.49 53.49 35.85 53.49"/><line class="cls-6" x1="18.21" y1="35.85" x2="35.85" y2="53.49"/><polyline class="cls-7" points="53.49 0.57 53.49 18.21 35.85 18.21"/><line class="cls-7" x1="53.49" y1="18.21" x2="71.13" y2="35.85"/><line class="cls-8" x1="35.85" y1="0.57" x2="53.49" y2="0.57"/><line class="cls-8" x1="53.49" y1="18.21" x2="71.13" y2="18.21"/><polyline class="cls-8" points="71.13 18.21 71.13 35.85 53.49 35.85"/><line class="cls-8" x1="53.49" y1="0.57" x2="71.13" y2="18.21"/><line class="cls-9" x1="35.85" y1="0.57" x2="35.85" y2="18.21"/><line class="cls-9" x1="35.85" y1="18.21" x2="53.49" y2="35.85"/><line class="cls-10" x1="18.21" y1="0.57" x2="35.85" y2="0.57"/><polyline class="cls-10" points="35.85 35.85 35.85 18.21 53.49 18.21"/><polyline class="cls-10" points="53.49 18.21 53.49 35.85 35.85 35.85"/><line class="cls-10" x1="35.85" y1="0.57" x2="53.49" y2="18.21"/><line class="cls-10" x1="18.21" y1="0.57" x2="35.85" y2="18.21"/><polyline class="cls-11" points="18.21 0.57 18.21 18.21 0.57 18.21"/><line class="cls-11" x1="18.21" y1="18.21" x2="35.85" y2="35.85"/><polyline class="cls-12" points="0.57 18.21 0.57 0.57 18.21 0.57"/><polyline class="cls-12" points="18.21 35.85 18.21 18.21 35.85 18.21"/><polyline class="cls-12" points="35.85 18.21 35.85 35.85 18.21 35.85"/><line class="cls-12" x1="18.21" y1="0.57" x2="35.85" y2="18.21"/><line class="cls-12" x1="0.57" y1="0.57" x2="18.21" y2="18.21"/><line class="cls-12" x1="0.57" y1="18.21" x2="18.21" y2="35.85"/></svg>