<svg id="Layer_1" data-name="Layer 1" xmlns="http://www.w3.org/2000/svg" xmlns:xlink="http://www.w3.org/1999/xlink" width="424.21" height="105.09" viewBox="0 0 424.21 105.09"><defs><style>.cls-1{fill:#c3c4bb;}.cls-2{opacity:0.9;}.cls-10,.cls-11,.cls-12,.cls-13,.cls-14,.cls-3,.cls-4,.cls-5,.cls-6,.cls-7,.cls-8,.cls-9{fill:none;stroke-linecap:round;stroke-linejoin:round;stroke-width:1.75px;}.cls-3{stroke:#b3b3b3;}.cls-4{stroke:#fff;}.cls-5{stroke:#599298;}.cls-6{stroke:#82d1e5;}.cls-7{stroke:#3b5967;}.cls-8{stroke:#5b87a8;}.cls-9{stroke:#b06828;}.cls-10{stroke:#f09922;}.cls-11{stroke:#b13f26;}.cls-12{stroke:#f06324;}.cls-13{stroke:#801518;}.cls-14{stroke:#c42c28;}.cls-15{fill:url(#radial-gradient);}.cls-16{fill:url(#radial-gradient-2);}.cls-17{fill:url(#radial-gradient-3);}.cls-18{fill:url(#radial-gradient-4);}.cls-19{fill:url(#radial-gradient-5);}.cls-20{fill:url(#radial-gradient-6);}.cls-21{opacity:0.75;}.cls-22{fill:url(#radial-gradient-7);}.cls-23{fill:url(#radial-gradient-8);}.cls-24{fill:url(#radial-gradient-9);}.cls-25{fill:url(#radial-gradient-10);}.cls-26{fill:url(#radial-gradient-11);}.cls-27{fill:url(#radial-gradient-12);}.cls-28{fill:url(#radial-gradient-13);}.cls-29{fill:url(#radial-gradient-14);}.cls-30{fill:url(#radial-gradient-15);}.cls-31{fill:url(#radial-gradient-16);}.cls-32{fill:url(#radial-gradient-17);}.cls-33{fill:url(#radial-gradient-18);}.cls-34{fill:url(#radial-gradient-19);}.cls-35{fill:url(#radial-gradient-20);}.cls-36{fill:url(#radial-gradient-21);}.cls-37{fill:url(#radial-gradient-22);}</style><radialGradient id="radial-gradient" cx="6.93" cy="6.93" r="6.43" gradientUnits="userSpaceOnUse"><stop offset="0" stop-color="#fff"/><stop offset="0.12" stop-color="#fff" stop-opacity="0.78"/><stop offset="0.24" stop-color="#fff" stop-opacity="0.57"/><stop offset="0.37" stop-color="#fff" stop-opacity="0.4"/><stop offset="0.5" stop-color="#fff" stop-opacity="0.25"/><stop offset="0.62" stop-color="#fff" stop-opacity="0.14"/><stop offset="0.75" stop-color="#fff" stop-opacity="0.06"/><stop offset="0.88" stop-color="#fff" stop-opacity="0.02"/><stop offset="1" stop-color="#fff" stop-opacity="0"/></radialGradient><radialGradient id="radial-gradient-2" cx="6.93" cy="6.93" r="6.93" gradientUnits="userSpaceOnUse"><stop offset="0" stop-color="#c3c4bb"/><stop offset="0.14" stop-color="#c3c4bb" stop-opacity="0.74"/><stop offset="0.28" stop-color="#c3c4bb" stop-opacity="0.52"/><stop offset="0.43" stop-color="#c3c4bb" stop-opacity="0.33"/><stop offset="0.57" stop-color="#c3c4bb" stop-opacity="0.19"/><stop offset="0.72" stop-color="#c3c4bb" stop-opacity="0.08"/><stop offset="0.86" stop-color="#c3c4bb" stop-opacity="0.02"/><stop offset="1" stop-color="#c3c4bb" stop-opacity="0"/></radialGradient><radialGradient id="radial-gradient-3" cx="6.93" cy="67.75" r="6.43" xlink:href="#radial-gradient"/><radialGradient id="radial-gradient-4" cx="6.93" cy="67.75" r="6.93" xlink:href="#radial-gradient-2"/><radialGradient id="radial-gradient-5" cx="67.75" cy="6.93" r="6.43" gradientUnits="userSpaceOnUse"><stop offset="0" stop-color="#fff"/><stop offset="0.01" stop-color="#fff" stop-opacity="0.96"/><stop offset="0.05" stop-color="#fff" stop-opacity="0.78"/><stop offset="0.09" stop-color="#fff" stop-opacity="0.61"/><stop offset="0.14" stop-color="#fff" stop-opacity="0.47"/><stop offset="0.2" stop-color="#fff" stop-opacity="0.34"/><stop offset="0.25" stop-color="#fff" stop-opacity="0.23"/><stop offset="0.32" stop-color="#fff" stop-opacity="0.15"/><stop offset="0.4" stop-color="#fff" stop-opacity="0.08"/><stop offset="0.49" stop-color="#fff" stop-opacity="0.03"/><stop offset="0.63" stop-color="#fff" stop-opacity="0.01"/><stop offset="1" stop-color="#fff" stop-opacity="0"/></radialGradient><radialGradient id="radial-gradient-6" cx="67.75" cy="6.93" r="6.93" xlink:href="#radial-gradient-2"/><radialGradient id="radial-gradient-7" cx="67.75" cy="67.75" r="6.43" xlink:href="#radial-gradient-5"/><radialGradient id="radial-gradient-8" cx="67.75" cy="67.75" r="6.93" xlink:href="#radial-gradient-2"/><radialGradient id="radial-gradient-9" cx="37.12" cy="37.34" r="6.43" xlink:href="#radial-gradient"/><radialGradient id="radial-gradient-10" cx="37.12" cy="37.34" r="6.93" xlink:href="#radial-gradient-2"/><radialGradient id="radial-gradient-11" cx="37.12" cy="98.16" r="6.43" xlink:href="#radial-gradient"/><radialGradient id="radial-gradient-12" cx="37.12" cy="98.16" r="6.93" xlink:href="#radial-gradient-2"/><radialGradient id="radial-gradient-13" cx="97.84" cy="37.34" r="6.43" xlink:href="#radial-gradient"/><radialGradient id="radial-gradient-14" cx="97.84" cy="37.34" r="6.93" xlink:href="#radial-gradient-2"/><radialGradient id="radial-gradient-15" cx="97.84" cy="6.93" r="6.43" xlink:href="#radial-gradient"/><radialGradient id="radial-gradient-16" cx="97.84" cy="6.93" r="6.93" xlink:href="#radial-gradient-2"/><radialGradient id="radial-gradient-17" cx="97.84" cy="98.16" r="6.43" gradientUnits="userSpaceOnUse"><stop offset="0" stop-color="#fff"/><stop offset="0.08" stop-color="#fff" stop-opacity="0.79"/><stop offset="0.17" stop-color="#fff" stop-opacity="0.61"/><stop offset="0.26" stop-color="#fff" stop-opacity="0.44"/><stop offset="0.35" stop-color="#fff" stop-opacity="0.31"/><stop offset="0.45" stop-color="#fff" stop-opacity="0.19"/><stop offset="0.56" stop-color="#fff" stop-opacity="0.11"/><stop offset="0.68" stop-color="#fff" stop-opacity="0.05"/><stop offset="0.81" stop-color="#fff" stop-opacity="0.01"/><stop offset="1" stop-color="#fff" stop-opacity="0"/></radialGradient><radialGradient id="radial-gradient-18" cx="97.84" cy="98.16" r="6.93" xlink:href="#radial-gradient-2"/><radialGradient id="radial-gradient-19" cx="128.57" cy="37.34" r="6.43" xlink:href="#radial-gradient"/><radialGradient id="radial-gradient-20" cx="128.57" cy="37.34" r="6.93" xlink:href="#radial-gradient-2"/><radialGradient id="radial-gradient-21" cx="128.57" cy="98.16" r="6.43" xlink:href="#radial-gradient"/><radialGradient id="radial-gradient-22" cx="128.57" cy="98.16" r="6.93" xlink:href="#radial-gradient-2"/></defs><title>triton-logo</title><path class="cls-1" d="M417.33,31.63h-0.94V30.86h2.7v0.77h-0.94v4.93h-0.82V31.63Z"/><path class="cls-1" d="M420.53,30.86h0.78l1,3h0l1-3h0.79v5.7H423.4V33.09h0l-0.81,2.45h-0.41l-0.8-2.45h0v3.46h-0.82v-5.7Z"/><path class="cls-1" d="M170.11,39.13H158.93V30h32v9.1H179.78V97.52h-9.67V39.13Z"/><path class="cls-1" d="M205,30h15.54q17.06,0,17.06,19.81a25,25,0,0,1-1.85,10.09,14.29,14.29,0,0,1-6.49,6.78l10.43,30.8H229.43l-9-28.81h-5.78V97.52H205V30Zm9.67,30.14h5.5a9.74,9.74,0,0,0,4.08-.71,5.24,5.24,0,0,0,2.32-2,8.69,8.69,0,0,0,1.09-3.27,31.44,31.44,0,0,0,.28-4.5,31.46,31.46,0,0,0-.28-4.5,8.14,8.14,0,0,0-1.18-3.32,5.37,5.37,0,0,0-2.51-2,11.43,11.43,0,0,0-4.26-.66h-5v21Z"/><path class="cls-1" d="M254.5,30h9.67V97.52H254.5V30Z"/><path class="cls-1" d="M289.54,39.13H278.35V30h32v9.1H299.2V97.52h-9.67V39.13Z"/><path class="cls-1" d="M323.79,46a17.24,17.24,0,0,1,1.42-7.2A15,15,0,0,1,329,33.59a16.13,16.13,0,0,1,5.21-3.08,16.81,16.81,0,0,1,11.66,0A16.15,16.15,0,0,1,351,33.59a15,15,0,0,1,3.74,5.17A17.25,17.25,0,0,1,356.2,46V81.59a17.16,17.16,0,0,1-1.42,7.25A15.14,15.14,0,0,1,351,94,16.12,16.12,0,0,1,345.82,97a16.81,16.81,0,0,1-11.66,0A16.09,16.09,0,0,1,329,94a15.11,15.11,0,0,1-3.74-5.12,17.14,17.14,0,0,1-1.42-7.25V46Zm9.67,35.63q0,3.51,1.94,5.17a7.2,7.2,0,0,0,9.19,0q1.94-1.66,1.94-5.17V46q0-3.51-1.94-5.17a7.2,7.2,0,0,0-9.19,0q-1.94,1.66-1.94,5.17V81.59Z"/><path class="cls-1" d="M372.1,30h9.29L396,70.69h0.19V30h9.67V97.52h-9.1L382,57h-0.19V97.52H372.1V30Z"/><path class="cls-1" d="M164.73,19.41a3.57,3.57,0,0,1-.23,1.29,3.23,3.23,0,0,1-.67,1.07,3.15,3.15,0,0,1-1.05.73,3.49,3.49,0,0,1-1.41.27,2.8,2.8,0,0,1-1.58-.42,5.25,5.25,0,0,1-1-.82l1.55-1.24a2,2,0,0,0,.49.36,1.26,1.26,0,0,0,.59.15,1.46,1.46,0,0,0,.41-0.07,1.1,1.1,0,0,0,.43-0.25,1.5,1.5,0,0,0,.35-0.5,2.06,2.06,0,0,0,.14-0.84V8.89h2V19.41Z"/><path class="cls-1" d="M168.32,12.14a3.52,3.52,0,0,1,.29-1.47,3.08,3.08,0,0,1,.76-1.05A3.31,3.31,0,0,1,170.44,9a3.44,3.44,0,0,1,2.38,0,3.31,3.31,0,0,1,1.06.63,3.08,3.08,0,0,1,.76,1.05,3.52,3.52,0,0,1,.29,1.47v7.27a3.5,3.5,0,0,1-.29,1.48,3.09,3.09,0,0,1-.76,1,3.29,3.29,0,0,1-1.06.63,3.43,3.43,0,0,1-2.38,0,3.29,3.29,0,0,1-1.06-.63,3.09,3.09,0,0,1-.76-1,3.5,3.5,0,0,1-.29-1.48V12.14Zm2,7.27a1.31,1.31,0,0,0,.4,1.05,1.47,1.47,0,0,0,1.88,0,1.31,1.31,0,0,0,.4-1.05V12.14a1.31,1.31,0,0,0-.4-1.05,1.47,1.47,0,0,0-1.88,0,1.31,1.31,0,0,0-.4,1.05v7.27Z"/><path class="cls-1" d="M180.42,16.84l-2.71-7.95h2.09l1.59,5.47h0L183,8.89h2.09l-2.71,7.95v5.82h-2V16.84Z"/><path class="cls-1" d="M188.31,8.89h5.88v1.86h-3.91v4h3.4v1.86h-3.4v4h3.91v2h-5.88V8.89Z"/><path class="cls-1" d="M197.5,8.89h1.9l3,8.3h0V8.89h2V22.66h-1.86l-3-8.28h0v8.28h-2V8.89Z"/><path class="cls-1" d="M209.77,10.75h-2.28V8.89H214v1.86h-2.28V22.66h-2V10.75Z"/><g class="cls-2"><line class="cls-3" x1="37.34" y1="67.75" x2="6.93" y2="67.75"/><line class="cls-3" x1="37.34" y1="67.75" x2="67.75" y2="98.16"/><line class="cls-4" x1="6.93" y1="67.75" x2="6.93" y2="37.34"/><line class="cls-4" x1="37.34" y1="98.16" x2="37.34" y2="67.75"/><line class="cls-4" x1="67.75" y1="98.16" x2="37.34" y2="98.16"/><line class="cls-4" x1="6.93" y1="67.75" x2="37.34" y2="98.16"/><line class="cls-5" x1="98.16" y1="67.75" x2="128.57" y2="98.16"/><polyline class="cls-6" points="128.57 67.75 128.57 98.16 98.16 98.16"/><line class="cls-7" x1="67.75" y1="67.75" x2="98.16" y2="98.16"/><polyline class="cls-8" points="67.75 98.16 67.75 67.75 98.16 67.75"/><polyline class="cls-8" points="98.16 67.75 98.16 98.16 67.75 98.16"/><line class="cls-8" x1="37.34" y1="67.75" x2="67.75" y2="98.16"/><polyline class="cls-9" points="98.16 6.93 98.16 37.34 67.75 37.34"/><line class="cls-9" x1="98.16" y1="37.34" x2="128.57" y2="67.75"/><line class="cls-10" x1="67.75" y1="6.93" x2="98.16" y2="6.93"/><line class="cls-10" x1="98.16" y1="37.34" x2="128.57" y2="37.34"/><polyline class="cls-10" points="128.57 37.34 128.57 67.75 98.16 67.75"/><line class="cls-10" x1="98.16" y1="6.93" x2="128.57" y2="37.34"/><line class="cls-11" x1="67.75" y1="6.93" x2="67.75" y2="37.34"/><line class="cls-11" x1="67.75" y1="37.34" x2="98.16" y2="67.75"/><line class="cls-12" x1="37.34" y1="6.93" x2="67.75" y2="6.93"/><polyline class="cls-12" points="67.75 67.75 67.75 37.34 98.16 37.34"/><polyline class="cls-12" points="98.16 37.34 98.16 67.75 67.75 67.75"/><line class="cls-12" x1="67.75" y1="6.93" x2="98.16" y2="37.34"/><line class="cls-12" x1="37.34" y1="6.93" x2="67.75" y2="37.34"/><polyline class="cls-13" points="37.34 6.93 37.34 37.34 6.92 37.34"/><line class="cls-13" x1="37.34" y1="37.34" x2="67.75" y2="67.75"/><polyline class="cls-14" points="6.92 37.34 6.92 6.93 37.34 6.93"/><polyline class="cls-14" points="37.34 67.75 37.34 37.34 67.75 37.34"/><polyline class="cls-14" points="67.75 37.34 67.75 67.75 37.34 67.75"/><line class="cls-14" x1="37.34" y1="6.93" x2="67.75" y2="37.34"/><line class="cls-14" x1="6.93" y1="6.93" x2="37.34" y2="37.34"/><line class="cls-14" x1="6.93" y1="37.34" x2="37.34" y2="67.75"/></g><g class="cls-2"><circle class="cls-15" cx="6.93" cy="6.93" r="6.43"/><path class="cls-16" d="M6.93,13.85a6.93,6.93,0,1,1,6.92-6.93A6.93,6.93,0,0,1,6.93,13.85ZM6.93,1a5.93,5.93,0,1,0,5.92,5.93A5.93,5.93,0,0,0,6.93,1Z"/></g><g class="cls-2"><circle class="cls-17" cx="6.93" cy="67.75" r="6.43"/><path class="cls-18" d="M6.93,74.68a6.93,6.93,0,1,1,6.92-6.93A6.93,6.93,0,0,1,6.93,74.68Zm0-12.85a5.93,5.93,0,1,0,5.92,5.93A5.93,5.93,0,0,0,6.93,61.82Z"/></g><g class="cls-2"><circle class="cls-19" cx="67.75" cy="6.93" r="6.43"/><path class="cls-20" d="M67.75,13.85a6.93,6.93,0,1,1,6.93-6.93A6.93,6.93,0,0,1,67.75,13.85ZM67.75,1a5.93,5.93,0,1,0,5.93,5.93A5.93,5.93,0,0,0,67.75,1Z"/></g><g class="cls-21"><circle class="cls-22" cx="67.75" cy="67.75" r="6.43"/><path class="cls-23" d="M67.75,74.68a6.93,6.93,0,1,1,6.93-6.93A6.93,6.93,0,0,1,67.75,74.68Zm0-12.85a5.93,5.93,0,1,0,5.93,5.93A5.93,5.93,0,0,0,67.75,61.82Z"/></g><g class="cls-2"><circle class="cls-24" cx="37.12" cy="37.34" r="6.43"/><path class="cls-25" d="M37.12,44.26A6.93,6.93,0,1,1,44,37.34,6.93,6.93,0,0,1,37.12,44.26Zm0-12.85A5.93,5.93,0,1,0,43,37.34,5.93,5.93,0,0,0,37.12,31.41Z"/></g><g class="cls-2"><circle class="cls-26" cx="37.12" cy="98.16" r="6.43"/><path class="cls-27" d="M37.12,105.09A6.93,6.93,0,1,1,44,98.16,6.93,6.93,0,0,1,37.12,105.09Zm0-12.85A5.93,5.93,0,1,0,43,98.16,5.93,5.93,0,0,0,37.12,92.24Z"/></g><g class="cls-2"><circle class="cls-28" cx="97.84" cy="37.34" r="6.43"/><path class="cls-29" d="M97.84,44.26a6.93,6.93,0,1,1,6.93-6.93A6.93,6.93,0,0,1,97.84,44.26Zm0-12.85a5.93,5.93,0,1,0,5.93,5.93A5.93,5.93,0,0,0,97.84,31.41Z"/></g><g class="cls-2"><circle class="cls-30" cx="97.84" cy="6.93" r="6.43"/><path class="cls-31" d="M97.84,13.85a6.93,6.93,0,1,1,6.93-6.93A6.93,6.93,0,0,1,97.84,13.85ZM97.84,1a5.93,5.93,0,1,0,5.93,5.93A5.93,5.93,0,0,0,97.84,1Z"/></g><g class="cls-2"><circle class="cls-32" cx="97.84" cy="98.16" r="6.43"/><path class="cls-33" d="M97.84,105.09a6.93,6.93,0,1,1,6.93-6.93A6.93,6.93,0,0,1,97.84,105.09Zm0-12.85a5.93,5.93,0,1,0,5.93,5.93A5.93,5.93,0,0,0,97.84,92.24Z"/></g><g class="cls-2"><circle class="cls-34" cx="128.57" cy="37.34" r="6.43"/><path class="cls-35" d="M128.57,44.26a6.93,6.93,0,1,1,6.93-6.93A6.93,6.93,0,0,1,128.57,44.26Zm0-12.85a5.93,5.93,0,1,0,5.93,5.93A5.93,5.93,0,0,0,128.57,31.41Z"/></g><g class="cls-2"><circle class="cls-36" cx="128.57" cy="98.16" r="6.43"/><path class="cls-37" d="M128.57,105.09a6.93,6.93,0,1,1,6.93-6.93A6.93,6.93,0,0,1,128.57,105.09Zm0-12.85a5.93,5.93,0,1,0,5.93,5.93A5.93,5.93,0,0,0,128.57,92.24Z"/></g></svg>