<svg id="design" xmlns="http://www.w3.org/2000/svg" width="14.07" height="11.43" viewBox="0 0 14.07 11.43"><defs><style>.cls-1{fill:#fff;}</style></defs><title>twitter</title><g id="Share"><path class="cls-1" d="M675.18,1361.88a6.06,6.06,0,0,1-1.45,1.49q0,0.12,0,.38a8.19,8.19,0,0,1-.34,2.32,8.35,8.35,0,0,1-1,2.22,8.71,8.71,0,0,1-1.65,1.88,7.33,7.33,0,0,1-2.3,1.3,8.44,8.44,0,0,1-2.88.49,8,8,0,0,1-4.43-1.29,6,6,0,0,0,.7,0,5.65,5.65,0,0,0,3.58-1.23,2.89,2.89,0,0,1-2.7-2,3.59,3.59,0,0,0,.54,0,3,3,0,0,0,.76-0.1,2.84,2.84,0,0,1-1.66-1,2.79,2.79,0,0,1-.66-1.83v0a2.85,2.85,0,0,0,1.3.37,2.87,2.87,0,0,1-.94-1,2.89,2.89,0,0,1,0-2.83,8.17,8.17,0,0,0,2.63,2.13,8,8,0,0,0,3.32.89,3.22,3.22,0,0,1-.07-0.66,2.89,2.89,0,0,1,5-2,5.66,5.66,0,0,0,1.83-.7,2.8,2.8,0,0,1-1.27,1.59A5.75,5.75,0,0,0,675.18,1361.88Z" transform="translate(-661.1 -1360.52)"/></g></svg>